<svg width="24" height="24" viewBox="0 0 24 24" fill="none" xmlns="http://www.w3.org/2000/svg">
<path d="M12 3.00019C12.132 3.00019 12.263 3.00019 12.393 3.00019C11.1083 4.1939 10.2826 5.80003 10.0593 7.53941C9.83599 9.27879 10.2293 11.0414 11.1707 12.5209C12.1122 14.0004 13.5424 15.1032 15.2126 15.6377C16.8828 16.1721 18.6875 16.1043 20.313 15.4462C19.6877 16.9507 18.6658 18.2572 17.3562 19.2264C16.0466 20.1957 14.4984 20.7912 12.8769 20.9496C11.2554 21.1079 9.62126 20.8231 8.14889 20.1256C6.67651 19.428 5.42111 18.3439 4.51658 16.9888C3.61206 15.6337 3.09235 14.0585 3.01288 12.4312C2.93341 10.8038 3.29718 9.18548 4.06537 7.7487C4.83356 6.31192 5.97736 5.11061 7.37476 4.27292C8.77216 3.43523 10.3707 2.99258 12 2.99219V3.00019Z" stroke="#35384B" stroke-width="1.5" stroke-linecap="round" stroke-linejoin="round"/>
</svg>
