<svg width="24" height="24" viewBox="0 0 24 24" fill="none" xmlns="http://www.w3.org/2000/svg">
<g clip-path="url(#clip0_14526_102253)">
<path d="M12 19C12.2449 19 12.4813 19.09 12.6644 19.2527C12.8474 19.4155 12.9643 19.6397 12.993 19.883L13 20V21C12.9997 21.2549 12.9021 21.5 12.7272 21.6854C12.5522 21.8707 12.313 21.9822 12.0586 21.9972C11.8042 22.0121 11.5536 21.9293 11.3582 21.7657C11.1627 21.6021 11.0371 21.3701 11.007 21.117L11 21V20C11 19.7348 11.1054 19.4804 11.2929 19.2929C11.4804 19.1054 11.7348 19 12 19Z" fill="#35384B"/>
<path d="M18.313 16.9099L18.407 16.9929L19.107 17.6929C19.2864 17.8729 19.3905 18.1144 19.3982 18.3683C19.406 18.6223 19.3168 18.8697 19.1488 19.0602C18.9807 19.2508 18.7465 19.3703 18.4935 19.3943C18.2406 19.4184 17.988 19.3454 17.787 19.1899L17.693 19.1069L16.993 18.4069C16.8204 18.2347 16.7168 18.0053 16.7015 17.7619C16.6862 17.5186 16.7603 17.278 16.91 17.0855C17.0596 16.893 17.2744 16.7618 17.514 16.7166C17.7536 16.6713 18.0015 16.7152 18.211 16.8399L18.313 16.9099Z" fill="#35384B"/>
<path d="M7.00701 16.992C7.17919 17.1642 7.28262 17.3933 7.2979 17.6363C7.31318 17.8794 7.23926 18.1196 7.09001 18.312L7.00701 18.406L6.30701 19.106C6.12705 19.2854 5.88558 19.3895 5.63163 19.3972C5.37768 19.405 5.1303 19.3158 4.93973 19.1478C4.74917 18.9797 4.62971 18.7455 4.60561 18.4925C4.58152 18.2396 4.6546 17.987 4.81001 17.786L4.89301 17.692L5.59301 16.992C5.78054 16.8045 6.03485 16.6992 6.30001 16.6992C6.56518 16.6992 6.81948 16.8045 7.00701 16.992Z" fill="#35384B"/>
<path d="M3.99999 11C4.25487 11.0003 4.50002 11.0979 4.68536 11.2728C4.8707 11.4478 4.98223 11.687 4.99716 11.9414C5.0121 12.1958 4.92932 12.4464 4.76573 12.6418C4.60214 12.8373 4.37009 12.9629 4.11699 12.993L3.99999 13H2.99999C2.74511 12.9997 2.49996 12.9021 2.31462 12.7272C2.12929 12.5522 2.01776 12.313 2.00282 12.0586C1.98788 11.8042 2.07067 11.5536 2.23426 11.3582C2.39785 11.1627 2.62989 11.0371 2.88299 11.007L2.99999 11H3.99999Z" fill="#35384B"/>
<path d="M21 11C21.2549 11.0003 21.5 11.0979 21.6854 11.2728C21.8707 11.4478 21.9822 11.687 21.9972 11.9414C22.0121 12.1958 21.9293 12.4464 21.7657 12.6418C21.6021 12.8373 21.3701 12.9629 21.117 12.993L21 13H20C19.7451 12.9997 19.5 12.9021 19.3146 12.7272C19.1293 12.5522 19.0178 12.313 19.0028 12.0586C18.9879 11.8042 19.0707 11.5536 19.2343 11.3582C19.3978 11.1627 19.6299 11.0371 19.883 11.007L20 11H21Z" fill="#35384B"/>
<path d="M6.213 4.81083L6.307 4.89383L7.007 5.59383C7.18635 5.77379 7.29048 6.01526 7.29823 6.26921C7.30599 6.52316 7.21679 6.77054 7.04876 6.96111C6.88072 7.15167 6.64645 7.27113 6.39353 7.29523C6.14061 7.31932 5.888 7.24624 5.687 7.09083L5.593 7.00783L4.893 6.30783C4.72109 6.13551 4.61794 5.9064 4.60287 5.66346C4.5878 5.42052 4.66186 5.18042 4.81117 4.98818C4.96047 4.79594 5.17476 4.66476 5.41387 4.61922C5.65298 4.57368 5.90049 4.61692 6.11 4.74083L6.213 4.81083Z" fill="#35384B"/>
<path d="M19.107 4.89435C19.2792 5.06654 19.3826 5.29564 19.3979 5.53867C19.4132 5.78169 19.3392 6.02194 19.19 6.21435L19.107 6.30835L18.407 7.00835C18.227 7.1877 17.9856 7.29182 17.7316 7.29958C17.4777 7.30733 17.2303 7.21813 17.0397 7.0501C16.8491 6.88207 16.7297 6.6478 16.7056 6.39487C16.6815 6.14195 16.7546 5.88934 16.91 5.68835L16.993 5.59435L17.693 4.89435C17.8805 4.70688 18.1348 4.60156 18.4 4.60156C18.6652 4.60156 18.9195 4.70688 19.107 4.89435Z" fill="#35384B"/>
<path d="M12 2C12.2449 2.00003 12.4813 2.08996 12.6644 2.25272C12.8474 2.41547 12.9643 2.63975 12.993 2.883L13 3V4C12.9997 4.25488 12.9021 4.50003 12.7272 4.68537C12.5522 4.8707 12.313 4.98223 12.0586 4.99717C11.8042 5.01211 11.5536 4.92933 11.3582 4.76574C11.1627 4.60214 11.0371 4.3701 11.007 4.117L11 4V3C11 2.73478 11.1054 2.48043 11.2929 2.29289C11.4804 2.10536 11.7348 2 12 2Z" fill="#35384B"/>
<path d="M12 7C12.9797 6.99994 13.9378 7.28769 14.7553 7.8275C15.5729 8.36731 16.2138 9.1354 16.5986 10.0364C16.9833 10.9373 17.0949 11.9315 16.9195 12.8953C16.7441 13.8592 16.2893 14.7502 15.6118 15.4579C14.9343 16.1655 14.0638 16.6585 13.1085 16.8756C12.1532 17.0928 11.1552 17.0245 10.2383 16.6793C9.3215 16.334 8.52629 15.7271 7.95146 14.9338C7.37663 14.1405 7.04752 13.1958 7.005 12.217L7 12L7.005 11.783C7.06092 10.4958 7.61161 9.27978 8.54222 8.38866C9.47284 7.49754 10.7115 7.00007 12 7Z" stroke="#35384B" stroke-width="1.5" stroke-linecap="round" stroke-linejoin="round"/>
</g>
<defs>
<clipPath id="clip0_14526_102253">
<rect width="24" height="24" fill="white"/>
</clipPath>
</defs>
</svg>
